Coordinates
version=1
nRows=11
nColumns=42
inDegrees=yes

Units are S.I. units (second, meters, Newtons, ...)
If the header above contains a line with 'inDegrees', this indicates whether rotational values are in degrees (yes) or radians (no).

endheader
time	pelvis_tilt	pelvis_list	pelvis_rotation	pelvis_tx	pelvis_ty	pelvis_tz	hip_flexion_r	hip_adduction_r	hip_rotation_r	knee_angle_r	knee_adduction_r	knee_angle_r_beta	ankle_angle_r	subtalar_angle_r	mtp_angle_r	hip_flexion_l	hip_adduction_l	hip_rotation_l	knee_angle_l	knee_adduction_l	knee_angle_l_beta	ankle_angle_l	subtalar_angle_l	mtp_angle_l	lumbar_extension	lumbar_bending	lumbar_rotation	arm_flex_r	arm_add_r	arm_rot_r	elbow_flex_r	pro_sup_r	wrist_flex_r	wrist_dev_r	arm_flex_l	arm_add_l	arm_rot_l	elbow_flex_l	pro_sup_l	wrist_flex_l	wrist_dev_l
      0.73000000	      0.07465558	     -2.25873470	     -3.34052766	     -1.40482681	      0.95345754	      0.34282330	    -10.49183568	      1.87202522	     -8.18398540	      7.50810859	      3.25902014	      0.13104122	     20.04864276	     21.48874818	     -7.81591036	     24.43923846	     -5.54619422	    -18.95687666	     10.95092959	     -0.88567025	      0.19112978	      4.60402436	     18.99209553	     -7.81591036	     -9.94934931	      3.23715914	      4.87781549	      7.06601822	    -18.47579718	      8.84359710	     40.38813065	     90.00000001	      0.00000000	      0.00000000	    -12.57675276	    -12.20348945	      8.84160490	     30.80371063	     90.00000001	      0.00000000	      0.00000000
      0.74000000	      0.29406519	     -2.20305459	     -3.51748890	     -1.39474237	      0.95215904	      0.34271301	    -11.33794371	      1.66796107	     -8.07902230	      7.63070855	      3.34586193	      0.13318099	     20.26740681	     21.35328715	     -7.80164494	     24.50433097	     -5.55922459	    -21.10248170	     10.47020681	     -1.04271070	      0.18273958	      4.94661347	     22.89309383	     -7.80164494	    -10.20926761	      2.98874308	      4.91826485	      7.37041985	    -18.79886993	     10.36729205	     40.45110757	     90.00000001	      0.00000000	      0.00000000	    -12.74312594	    -11.96634994	      7.79985304	     30.66041759	     90.00000001	      0.00000000	      0.00000000
      0.75000000	      0.07334656	     -2.47502727	     -3.61440751	     -1.38509398	      0.95050565	      0.34290732	    -11.63578503	      1.99460319	     -7.90197055	      7.84446258	      3.18226392	      0.13691170	     20.51086154	     21.35189971	     -7.79847819	     24.76878391	     -5.76639484	    -21.13172251	      9.78883906	     -0.93858802	      0.17084747	      4.88272838	     23.61625190	     -7.79847819	    -10.04129999	      3.09953919	      5.08616887	      7.53940464	    -18.75696710	     10.47696720	     40.30670962	     90.00000001	      0.00000000	      0.00000000	    -12.80025442	    -11.94886367	      7.75559414	     30.57456488	     90.00000001	      0.00000000	      0.00000000
      0.76000000	     -0.06531213	     -2.59949547	     -3.64982958	     -1.37518872	      0.94897673	      0.34291923	    -12.03511662	      2.08088907	     -7.87333792	      8.07244016	      3.16356053	      0.14089066	     20.52618261	     21.30339741	     -7.79731267	     25.04594400	     -5.80184295	    -21.16516310	      9.69741073	     -0.95143086	      0.16925175	      4.86564456	     23.63940458	     -7.79731267	     -9.93799040	      3.04093340	      5.15317454	      7.58138042	    -18.70120578	     10.53632616	     40.31671059	     90.00000001	      0.00000000	      0.00000000	    -12.86736884	    -11.99138283	      7.72903792	     30.54609281	     90.00000001	      0.00000000	      0.00000000
      0.77000000	     -0.19931567	     -2.69457812	     -3.77028252	     -1.36499750	      0.94756309	      0.34288851	    -12.44141484	      2.11231279	     -7.79712514	      8.31703169	      3.09758686	      0.14515959	     20.54324582	     21.27243398	     -7.79627827	     25.19217638	     -5.80574980	    -21.06165133	      9.74374388	     -1.00411331	      0.17006041	      4.80064097	     23.68280376	     -7.79627827	     -9.81500865	      2.95854994	      5.26636015	      7.58988777	    -18.64087027	     10.61893484	     40.28643122	     90.00000001	      0.00000000	      0.00000000	    -12.93771173	    -11.99033135	      7.70771081	     30.50653738	     90.00000001	      0.00000000	      0.00000000
      0.78000000	      0.07333052	     -2.56232838	     -4.24500250	     -1.35454726	      0.94683327	      0.34286511	    -13.21443776	      1.71144375	     -7.49059114	      8.67717516	      3.08086136	      0.15144528	     20.83246625	     21.59057386	     -7.78311517	     24.81793885	     -5.69642136	    -21.93685826	     10.01715007	     -1.25755473	      0.17483225	      4.55732019	     24.89013159	     -7.78311517	    -10.13131953	      2.57482368	      5.58827406	      7.83782309	    -18.88449987	     12.08741297	     40.00456190	     90.00000001	      0.00000000	      0.00000000	    -12.84973627	    -11.76409469	      6.91733336	     30.09401306	     90.00000001	      0.00000000	      0.00000000
      0.79000000	     -0.01291315	     -2.60692413	     -4.42202233	     -1.34403838	      0.94576508	      0.34282562	    -13.62791819	      1.64292961	     -7.28411581	      9.01054360	      3.00631908	      0.15726365	     20.77043496	     21.61162037	     -7.78161519	     24.81882559	     -5.62546544	    -21.63724405	     10.46468807	     -1.46420691	      0.18264326	      4.32104958	     24.78120180	     -7.78161519	    -10.04559570	      2.40679476	      5.74510740	      7.72633265	    -18.78558735	     12.14532494	     39.91686922	     90.00000001	      0.00000000	      0.00000000	    -12.83817817	    -11.79578378	      6.90025964	     30.03048006	     90.00000001	      0.00000000	      0.00000000
      0.80000000	      0.03324243	     -2.55942502	     -4.64909301	     -1.33350733	      0.94509028	      0.34262444	    -14.12846591	      1.40643077	     -6.99566708	      9.42346708	      2.95756217	      0.16447053	     20.65309881	     21.69463783	     -7.77950974	     24.70960574	     -5.48511000	    -21.49259830	     11.18150508	     -1.73050741	      0.19515408	      3.74272746	     24.39373417	     -7.77950974	    -10.10824735	      2.14255684	      5.93764951	      7.65830221	    -18.69580635	     12.26499450	     39.74794400	     90.00000001	      0.00000000	      0.00000000	    -12.69427473	    -11.78578031	      6.89896455	     29.82084580	     90.00000001	      0.00000000	      0.00000000
      0.81000000	      0.20589788	     -2.26578640	     -5.05524609	     -1.32251798	      0.94484275	      0.34242977	    -14.70916814	      0.76576100	     -6.76985382	      9.93450704	      3.02130882	      0.17338986	     20.45859888	     21.87709097	     -7.77500334	     24.28620741	     -5.17122006	    -21.77607060	     11.77357423	     -1.92179095	      0.20548764	      2.66782751	     23.44599205	     -7.77500334	    -10.24591113	      1.57430103	      6.22955645	      7.53025719	    -18.61370527	     12.51191916	     39.50210060	     90.00000001	      0.00000000	      0.00000000	    -12.50494301	    -11.75161682	      6.85246044	     29.31932558	     90.00000001	      0.00000000	      0.00000000
      0.82000000	      0.23298783	     -2.09473315	     -5.27643514	     -1.31174043	      0.94467523	      0.34203929	    -15.06611403	      0.35709767	     -6.44241157	     10.54719865	      3.00565245	      0.18408334	     20.13263671	     21.93286105	     -7.77244347	     24.02160050	     -4.85814319	    -21.49307788	     12.31293764	     -2.20063266	      0.21490130	      1.87149028	     23.01540142	     -7.77244347	    -10.27489561	      1.17031252	      6.34947590	      7.31254453	    -18.49122730	     12.60069947	     39.37823408	     90.00000001	      0.00000000	      0.00000000	    -12.35880176	    -11.73591866	      6.83282362	     29.13877477	     90.00000001	      0.00000000	      0.00000000
      0.83000000	      0.27302911	     -1.80694478	     -5.51139484	     -1.30089467	      0.94488900	      0.34168406	    -15.32303763	     -0.19580842	     -6.19202720	     11.32590307	      2.99626372	      0.19767430	     19.62716431	     21.88709666	     -7.76970489	     23.67719133	     -4.48482411	    -21.34227909	     12.79210764	     -2.39423001	      0.22326440	      0.85847180	     22.40818295	     -7.76970489	    -10.30609483	      0.62090790	      6.46438167	      7.03741554	    -18.31742454	     12.67197531	     39.19026988	     90.00000001	      0.00000000	      0.00000000	    -12.11896750	    -11.75726649	      6.83327910	     28.84487850	     90.00000001	      0.00000000	      0.00000000
